<svg width="16" height="16" viewBox="0 0 16 16" fill="none" xmlns="http://www.w3.org/2000/svg">
<path d="M4.86193 8.19543C5.12228 7.93508 5.54429 7.93508 5.80464 8.19543C6.06499 8.45577 6.06499 8.87778 5.80464 9.13813L4.27599 10.6668H10.6666C11.0348 10.6668 11.3333 10.9653 11.3333 11.3334C11.3333 11.7016 11.0348 12.0001 10.6666 12.0001H4.27599L5.80464 13.5288C6.06499 13.7891 6.06499 14.2111 5.80464 14.4715C5.54429 14.7318 5.12228 14.7318 4.86193 14.4715L2.19526 11.8048C1.93491 11.5445 1.93491 11.1224 2.19526 10.8621L4.86193 8.19543ZM10.1953 1.52876C10.4556 1.26841 10.8776 1.26841 11.138 1.52876L13.8046 4.19543C14.065 4.45577 14.065 4.87778 13.8046 5.13813L11.138 7.8048C10.8776 8.06515 10.4556 8.06515 10.1953 7.8048C9.93491 7.54445 9.93491 7.12244 10.1953 6.86209L11.7239 5.33345H5.33328C4.96509 5.33345 4.66662 5.03497 4.66662 4.66678C4.66662 4.29859 4.96509 4.00011 5.33328 4.00011H11.7239L10.1953 2.47147C9.93491 2.21112 9.93491 1.78911 10.1953 1.52876Z" fill="#33D878"/>
</svg>
