<svg width="24" height="24" viewBox="0 0 24 24" fill="none" xmlns="http://www.w3.org/2000/svg">
<path d="M18.2929 4.29286C18.6834 3.90239 19.3165 3.90237 19.707 4.29286C20.0974 4.6834 20.0975 5.31643 19.707 5.70692L13.413 11.9989L19.707 18.2929C20.0975 18.6834 20.0975 19.3164 19.707 19.7069C19.3164 20.0974 18.6834 20.0974 18.2929 19.7069L11.9999 13.414L5.70696 19.7069C5.31643 20.0974 4.68342 20.0974 4.29289 19.7069C3.90237 19.3164 3.90237 18.6834 4.29289 18.2929L10.5849 11.9999L4.29289 5.70692C3.90243 5.31638 3.9024 4.68335 4.29289 4.29286C4.68343 3.90239 5.31646 3.90237 5.70696 4.29286L11.9989 10.5858L18.2929 4.29286Z" fill="#D9E2E9"/>
</svg>
