<svg width="16" height="16" viewBox="0 0 16 16" fill="none" xmlns="http://www.w3.org/2000/svg">
<path d="M4.00016 12.6666C4.00016 12.4898 3.92987 12.3203 3.80485 12.1952C3.67983 12.0702 3.51031 11.9999 3.3335 11.9999C3.15669 11.9999 2.98717 12.0702 2.86214 12.1952C2.73712 12.3203 2.66683 12.4898 2.66683 12.6666C2.66683 12.8434 2.73712 13.0129 2.86214 13.1379C2.98717 13.263 3.15669 13.3333 3.3335 13.3333C3.51031 13.3333 3.67983 13.263 3.80485 13.1379C3.92987 13.0129 4.00016 12.8434 4.00016 12.6666ZM12.6668 10.3333C12.6668 9.89122 12.4911 9.46743 12.1785 9.15487C11.866 8.84231 11.4422 8.66659 11.0002 8.66659H5.66683C4.87118 8.66659 4.10834 8.35029 3.54574 7.78768C2.98313 7.22507 2.66683 6.46223 2.66683 5.66659C2.66683 4.87094 2.98313 4.1081 3.54574 3.54549C4.10834 2.98288 4.87118 2.66659 5.66683 2.66659L8.66683 2.66659C9.03502 2.66659 9.3335 2.96506 9.3335 3.33325C9.3335 3.70144 9.03502 3.99992 8.66683 3.99992H5.66683C5.2248 3.99992 4.801 4.17564 4.48844 4.4882C4.17588 4.80076 4.00016 5.22456 4.00016 5.66659C4.00016 6.10861 4.17588 6.53241 4.48844 6.84497C4.801 7.15753 5.2248 7.33325 5.66683 7.33325L11.0002 7.33325C11.7958 7.33325 12.5586 7.64955 13.1213 8.21216C13.6839 8.77477 14.0002 9.5376 14.0002 10.3333C14.0002 11.1289 13.6839 11.8917 13.1213 12.4543C12.5586 13.017 11.7958 13.3333 11.0002 13.3333H7.3335C6.96531 13.3333 6.66683 13.0348 6.66683 12.6666C6.66683 12.2984 6.96531 11.9999 7.3335 11.9999H11.0002C11.4422 11.9999 11.866 11.8242 12.1785 11.5116C12.4911 11.1991 12.6668 10.7753 12.6668 10.3333ZM13.3335 3.33325C13.3335 3.15644 13.2632 2.98692 13.1382 2.8619C13.0132 2.73687 12.8436 2.66659 12.6668 2.66659C12.49 2.66659 12.3205 2.73687 12.1955 2.8619C12.0705 2.98692 12.0002 3.15644 12.0002 3.33325C12.0002 3.51006 12.0705 3.67958 12.1955 3.80461C12.3205 3.92963 12.49 3.99992 12.6668 3.99992C12.8436 3.99992 13.0132 3.92963 13.1382 3.80461C13.2632 3.67958 13.3335 3.51006 13.3335 3.33325ZM5.3335 12.6666C5.3335 13.197 5.12263 13.7056 4.74756 14.0806C4.37249 14.4557 3.86393 14.6666 3.3335 14.6666C2.80306 14.6666 2.29451 14.4557 1.91943 14.0806C1.54436 13.7056 1.3335 13.197 1.3335 12.6666C1.3335 12.1362 1.54436 11.6276 1.91943 11.2525C2.29451 10.8775 2.80306 10.6666 3.3335 10.6666C3.86393 10.6666 4.37249 10.8775 4.74756 11.2525C5.12263 11.6276 5.3335 12.1362 5.3335 12.6666ZM14.6668 3.33325C14.6668 3.86369 14.456 4.37224 14.0809 4.74731C13.7058 5.12239 13.1973 5.33325 12.6668 5.33325C12.1364 5.33325 11.6278 5.12239 11.2528 4.74731C10.8777 4.37224 10.6668 3.86369 10.6668 3.33325C10.6668 2.80282 10.8777 2.29426 11.2528 1.91919C11.6278 1.54412 12.1364 1.33325 12.6668 1.33325C13.1973 1.33325 13.7058 1.54412 14.0809 1.91919C14.456 2.29426 14.6668 2.80282 14.6668 3.33325Z" fill="#D9E2E9"/>
</svg>
