<svg width="20" height="20" viewBox="0 0 20 20" fill="none" xmlns="http://www.w3.org/2000/svg">
<path d="M10 1.25C5.86567 1.25 2.50009 4.38968 2.50009 8.2465C2.47196 13.8787 9.17501 18.3914 9.45626 18.5838C9.61563 18.6888 9.8125 18.75 10 18.75C10.1875 18.75 10.3844 18.6975 10.5437 18.5838C10.825 18.3914 17.528 13.8874 17.4999 8.2465C17.4999 4.38968 14.1343 1.25 10 1.25ZM10 11.7448C7.92815 11.7448 6.25004 10.1793 6.25004 8.2465C6.25004 6.31372 7.92815 4.74825 10 4.74825C12.0719 4.74825 13.75 6.31372 13.75 8.2465C13.75 10.1793 12.0719 11.7448 10 11.7448Z" fill="#D9E2E9"/>
</svg>
