<svg width="24" height="24" viewBox="0 0 24 24" fill="none" xmlns="http://www.w3.org/2000/svg">
<path d="M13.5 1C14.0523 1 14.5 1.44772 14.5 2C14.5 2.55229 14.0523 3 13.5 3H12C9.61491 3 7.92683 3.0019 6.64746 3.17383C5.39691 3.34192 4.68728 3.6562 4.1709 4.17188L4.16992 4.1709C3.65499 4.68656 3.34186 5.39648 3.17383 6.64648C3.00186 7.92602 3 9.61474 3 12C3 14.3853 3.00186 16.074 3.17383 17.3535C3.34195 18.6044 3.65599 19.3136 4.1709 19.8281L4.37402 20.0117C4.8724 20.4197 5.55218 20.679 6.64648 20.8262C7.92596 20.9982 9.61472 21 12 21C14.3853 21 16.074 20.9982 17.3535 20.8262C18.6042 20.6579 19.3126 20.3434 19.8271 19.8281H19.8281C20.3437 19.3129 20.658 18.6031 20.8262 17.3525C20.9982 16.0732 21 14.385 21 12V10.5C21 9.94771 21.4477 9.5 22 9.5C22.5523 9.5 23 9.94771 23 10.5V12C23 14.3285 23.0017 16.1755 22.8076 17.6191C22.6096 19.0915 22.1915 20.2934 21.2422 21.2422L21.2412 21.2412C20.2929 22.1905 19.0922 22.6096 17.6201 22.8076C16.1763 23.0018 14.3287 23 12 23C9.67128 23 7.82365 23.0018 6.37988 22.8076C4.99948 22.6219 3.85695 22.2429 2.9375 21.4141L2.75684 21.2422C1.80799 20.2939 1.39027 19.0922 1.19238 17.6201C0.99835 16.1764 1 14.3287 1 12C1 9.67145 0.9984 7.82452 1.19238 6.38086C1.39028 4.90839 1.80824 3.70608 2.75684 2.75684H2.75781C3.70743 1.80852 4.90842 1.39029 6.38086 1.19238C7.82446 0.998349 9.67126 1 12 1H13.5ZM19.248 1C20.2433 1.00023 21.1977 1.3958 21.9014 2.09961C22.6051 2.80355 23.0001 3.75852 23 4.75391C22.9998 5.74914 22.6042 6.70357 21.9004 7.40723V7.4082L21.252 8.05566L15.2871 14.0205C14.8998 14.4078 14.6487 14.6614 14.3662 14.8818H14.3652C14.0453 15.1311 13.6991 15.345 13.333 15.5195L13.3311 15.5205C13.1701 15.5968 13.0049 15.6631 12.8154 15.7314L12.1514 15.958L10.416 16.5371L9.29297 16.9111L9.29199 16.9102C8.98539 17.0124 8.65642 17.0282 8.3418 16.9541C8.02641 16.8798 7.73779 16.7185 7.50879 16.4893C7.27985 16.26 7.1189 15.9717 7.04492 15.6562C6.97096 15.3408 6.98663 15.0103 7.08984 14.7031L7.46289 13.584L8.04199 11.8486C8.21517 11.3301 8.32655 10.9903 8.47949 10.668L8.48047 10.667C8.65558 10.2997 8.86822 9.95437 9.11816 9.63379L9.29101 9.42578C9.47351 9.21773 9.68883 9.00355 9.97949 8.71289L16.5937 2.09863C17.2976 1.39505 18.2528 0.999937 19.248 1ZM11.3936 10.127C11.0782 10.4423 10.9147 10.6076 10.7988 10.7393L10.6953 10.8643C10.5348 11.0702 10.3979 11.2908 10.2852 11.5273C10.1966 11.7144 10.1275 11.9183 9.93945 12.4814L9.55566 13.6299L10.3691 14.4434L11.5176 14.0605C11.9414 13.919 12.1624 13.8451 12.3252 13.7793L12.4736 13.7139C12.7084 13.6018 12.9306 13.4646 13.1357 13.3047L13.2607 13.2012C13.3924 13.0853 13.5577 12.9218 13.873 12.6064L18.6768 7.80176C18.2191 7.56823 17.7192 7.2352 17.2422 6.75781C16.7646 6.28045 16.4317 5.7803 16.1982 5.32227L11.3936 10.127ZM19.2471 3C18.7823 3.0001 18.3365 3.18508 18.0078 3.51367L17.7334 3.78711C17.7494 3.84347 17.7666 3.90498 17.7891 3.96973C17.906 4.30666 18.1142 4.73891 18.4863 5.16309L18.6562 5.34375L18.6572 5.34473C19.137 5.82479 19.6456 6.0783 20.0303 6.21191C20.0944 6.23417 20.156 6.25071 20.2119 6.2666L20.4873 5.99219C20.8157 5.66355 20.9999 5.21752 21 4.75293C20.9999 4.2882 20.8158 3.84237 20.4873 3.51367C20.1586 3.18489 19.712 3.00006 19.2471 3Z" fill="#D9E2E9"/>
</svg>
