<svg width="24" height="24" viewBox="0 0 24 24" fill="none" xmlns="http://www.w3.org/2000/svg">
<path d="M20.9997 10.9999C21.552 10.9999 22.0003 11.4482 22.0003 12.0004C22.0001 12.5526 21.5519 12.9997 20.9997 12.9996L12.9999 12.999V20.9995C12.9999 21.5518 12.5523 21.9994 12 21.9994C11.4477 21.9994 11.0001 21.5518 11.0001 20.9995L11.0001 12.999L3.00025 12.9996C2.44796 12.9996 2.00035 12.552 2.00035 11.9997C2.00051 11.4476 2.44806 10.9999 3.00025 10.9999L10.9994 10.9999L11.0001 3.00002C11.0001 2.44777 11.4477 2.00013 12 2.00013C12.5522 2.00018 12.9999 2.44778 12.9999 3.00002L12.9992 10.9985L20.9997 10.9999Z" fill="#D9E2E9"/>
</svg>
