<svg width="20" height="20" viewBox="0 0 20 20" fill="none" xmlns="http://www.w3.org/2000/svg">
<path fill-rule="evenodd" clip-rule="evenodd" d="M11.8989 1.79317C11.5906 1.6665 11.1989 1.6665 10.4164 1.6665C9.63394 1.6665 9.24311 1.6665 8.93394 1.79317C8.73051 1.87629 8.54553 1.99882 8.38965 2.15371C8.23376 2.3086 8.11004 2.49278 8.02561 2.69567C7.94727 2.8815 7.91727 3.099 7.90477 3.41484C7.89883 3.64359 7.83483 3.86707 7.7188 4.0643C7.60276 4.26153 7.4385 4.42602 7.24144 4.54234C7.04039 4.65409 6.81439 4.71329 6.58438 4.71446C6.35436 4.71562 6.12778 4.65871 5.92561 4.549C5.64394 4.40067 5.43977 4.319 5.23811 4.29234C4.79693 4.23477 4.35083 4.35333 3.99644 4.62234C3.73144 4.824 3.53561 5.16067 3.14477 5.83317C2.75311 6.50567 2.55811 6.8415 2.51394 7.17067C2.45561 7.609 2.57561 8.05234 2.84727 8.40317C2.97061 8.56317 3.14477 8.69734 3.41394 8.86567C3.81144 9.11317 4.06644 9.53484 4.06644 9.99984C4.06644 10.4648 3.81144 10.8865 3.41477 11.1332C3.14477 11.3023 2.97061 11.4365 2.84644 11.5965C2.71275 11.77 2.61457 11.9682 2.55751 12.1797C2.50046 12.3911 2.48565 12.6118 2.51394 12.829C2.55811 13.1573 2.75311 13.494 3.14477 14.1665C3.53644 14.839 3.73144 15.1748 3.99644 15.3773C4.34977 15.6465 4.79644 15.7648 5.23811 15.7073C5.43977 15.6807 5.64394 15.599 5.92561 15.4507C6.12788 15.3408 6.35462 15.2838 6.5848 15.285C6.81497 15.2862 7.04113 15.3454 7.24227 15.4573C7.64727 15.6907 7.88727 16.1198 7.90477 16.5848C7.91727 16.9015 7.94727 17.1182 8.02561 17.304C8.19561 17.7123 8.52227 18.0373 8.93394 18.2065C9.24227 18.3332 9.63394 18.3332 10.4164 18.3332C11.1989 18.3332 11.5906 18.3332 11.8989 18.2065C12.1024 18.1234 12.2873 18.0009 12.4432 17.846C12.5991 17.6911 12.7228 17.5069 12.8073 17.304C12.8856 17.1182 12.9156 16.9015 12.9281 16.5848C12.9448 16.1198 13.1856 15.6898 13.5914 15.4573C13.7925 15.3456 14.0185 15.2864 14.2485 15.2852C14.4785 15.2841 14.7051 15.341 14.9073 15.4507C15.1889 15.599 15.3931 15.6807 15.5948 15.7073C16.0364 15.7657 16.4831 15.6465 16.8364 15.3773C17.1014 15.1757 17.2973 14.839 17.6881 14.1665C18.0798 13.494 18.2748 13.1582 18.3189 12.829C18.3471 12.6117 18.3322 12.3911 18.275 12.1796C18.2178 11.9681 18.1194 11.77 17.9856 11.5965C17.8623 11.4365 17.6881 11.3023 17.4189 11.134C17.0214 10.8865 16.7664 10.4648 16.7664 9.99984C16.7664 9.53484 17.0214 9.11317 17.4181 8.8665C17.6881 8.69734 17.8623 8.56317 17.9864 8.40317C18.1201 8.22966 18.2183 8.0315 18.2754 7.82002C18.3324 7.60853 18.3472 7.38788 18.3189 7.17067C18.2748 6.84234 18.0798 6.50567 17.6881 5.83317C17.2964 5.16067 17.1014 4.82484 16.8364 4.62234C16.4821 4.35333 16.036 4.23477 15.5948 4.29234C15.3931 4.319 15.1889 4.40067 14.9073 4.549C14.705 4.65886 14.4783 4.71585 14.2481 4.71469C14.0179 4.71352 13.7918 4.65424 13.5906 4.54234C13.3937 4.42592 13.2296 4.26138 13.1137 4.06416C12.9978 3.86694 12.934 3.64351 12.9281 3.41484C12.9156 3.09817 12.8856 2.8815 12.8073 2.69567C12.7228 2.49278 12.5991 2.3086 12.4432 2.15371C12.2873 1.99882 12.1024 1.87629 11.8989 1.79317ZM10.4164 12.4998C11.8081 12.4998 12.9356 11.3807 12.9356 9.99984C12.9356 8.619 11.8073 7.49984 10.4164 7.49984C9.02561 7.49984 7.89727 8.619 7.89727 9.99984C7.89727 11.3807 9.02561 12.4998 10.4164 12.4998Z" fill="#D9E2E9"/>
</svg>
