<svg width="32" height="32" viewBox="0 0 32 32" fill="none" xmlns="http://www.w3.org/2000/svg">
<path fill-rule="evenodd" clip-rule="evenodd" d="M16.0115 7.49966C13.8071 7.49966 13.5867 7.74155 12.4458 7.74155C11.4955 7.74155 8.64176 5.33337 7.21637 5.33337C5.79098 5.33337 4.12579 6.20081 4.12579 8.70451V11.5934C4.12877 12.3514 4.39389 14.6749 5.43649 14.054C4.20473 15.5608 4.08111 17.3188 4.09749 19.0198C3.76535 19.1184 3.42724 19.2309 3.09808 19.3464C2.07931 19.7069 0.997975 20.1661 0.510929 20.4927C0.262065 20.659 0.0872607 20.9208 0.0249716 21.2204C-0.0373176 21.5201 0.0180108 21.833 0.178785 22.0905C0.339559 22.3479 0.59261 22.5287 0.882268 22.5932C1.17193 22.6576 1.47447 22.6004 1.72333 22.4341C1.95568 22.2784 2.79721 21.8948 3.82046 21.5327L4.16005 21.4172C4.22856 22.0843 4.39985 22.696 4.65454 23.2506L4.61879 23.2707C4.00812 23.6035 3.44214 23.9871 3.0817 24.2306L2.91339 24.3446C2.66453 24.5109 2.48972 24.7727 2.42743 25.0723C2.36514 25.3719 2.42047 25.6849 2.58125 25.9423C2.74202 26.1998 2.99507 26.3806 3.28473 26.445C3.57439 26.5095 3.87693 26.4522 4.12579 26.2859L4.32091 26.1534C4.68582 25.9069 5.1535 25.591 5.66289 25.3137C5.78204 25.248 5.89673 25.1884 6.00695 25.135C8.58367 27.6356 13.2113 28.4445 16.0115 28.4445C18.8116 28.4445 23.4393 27.6356 26.016 25.135C26.1253 25.1884 26.2399 25.248 26.3601 25.3137C26.8695 25.591 27.3372 25.9069 27.7021 26.1534L27.8972 26.2859C28.146 26.4522 28.4486 26.5095 28.7382 26.445C29.0279 26.3806 29.281 26.1998 29.4417 25.9423C29.6025 25.6849 29.6578 25.3719 29.5955 25.0723C29.5333 24.7727 29.3585 24.5109 29.1096 24.3446L28.9413 24.2306C28.4435 23.8862 27.9306 23.5659 27.4042 23.2707L27.3684 23.2506C27.6231 22.696 27.7944 22.0843 27.8629 21.4172L28.2025 21.5327C29.2258 21.8948 30.0673 22.2784 30.3011 22.4341C30.5499 22.591 30.8481 22.6413 31.1321 22.574C31.4162 22.5068 31.6636 22.3274 31.8216 22.0741C31.9795 21.8208 32.0356 21.5137 31.9778 21.2183C31.92 20.9228 31.7528 20.6625 31.512 20.4927C31.025 20.1661 29.9437 19.7069 28.9264 19.3464C28.5951 19.2294 28.2614 19.12 27.9255 19.0182C27.9434 17.3173 27.8182 15.5608 26.585 14.054C27.6276 14.6749 27.8957 12.3514 27.8972 11.5919V8.70451C27.8972 6.20081 26.2335 5.33337 24.8066 5.33337C23.3812 5.33337 20.5275 7.74155 19.5787 7.74155C18.4363 7.74155 18.2159 7.49966 16.0115 7.49966ZM15.0061 21.6652C15.307 21.5589 15.663 21.5112 16.0115 21.5112C16.36 21.5112 16.716 21.5589 17.0183 21.6652C17.1673 21.7176 17.346 21.8008 17.5069 21.9333C17.6171 22.0194 17.7072 22.13 17.7706 22.257C17.834 22.3839 17.8691 22.5239 17.8733 22.6667C17.8733 23.0211 17.6663 23.2676 17.5069 23.4001C17.3475 23.5326 17.1658 23.6158 17.0183 23.6682C16.716 23.7745 16.36 23.8223 16.0115 23.8223C15.663 23.8223 15.307 23.7745 15.0061 23.6682C14.8292 23.6083 14.6635 23.5176 14.5161 23.4001C14.4059 23.314 14.3158 23.2034 14.2524 23.0765C14.1889 22.9495 14.1539 22.8095 14.1497 22.6667C14.1497 22.3123 14.3567 22.0658 14.5161 21.9333C14.6755 21.8008 14.8587 21.7176 15.0061 21.6652ZM19.2436 16.8889C19.4476 16.5376 19.8483 16.1186 20.45 16.1186C21.0517 16.1186 21.4539 16.5376 21.6564 16.8889C21.8679 17.2572 21.9692 17.7009 21.9692 18.1416C21.9692 18.5822 21.8679 19.0244 21.6564 19.3911C21.4539 19.7439 21.0517 20.163 20.45 20.163C19.8483 20.163 19.4476 19.7439 19.2436 19.3926C19.0336 19.0118 18.9256 18.5799 18.9308 18.1416C18.9308 17.7009 19.0321 17.2572 19.2436 16.8905M10.3665 16.8905C10.5706 16.5392 10.9712 16.1201 11.573 16.1201C12.1747 16.1201 12.5768 16.5392 12.7794 16.8905C12.9909 17.2587 13.0922 17.7024 13.0922 18.1431C13.0922 18.5837 12.9909 19.0259 12.7794 19.3926C12.5768 19.7455 12.1747 20.1645 11.573 20.1645C10.9712 20.1645 10.5706 19.7455 10.3665 19.3942C10.1566 19.0133 10.0486 18.5815 10.0537 18.1431C10.0537 17.7024 10.155 17.2572 10.3665 16.8905Z" fill="#BCC8D2"/>
</svg>
