<svg width="32" height="32" viewBox="0 0 32 32" fill="none" xmlns="http://www.w3.org/2000/svg">
<path fill-rule="evenodd" clip-rule="evenodd" d="M3.97232 10.8667C3.30034 12.2691 3.53678 13.9106 4.00965 17.1922L4.3556 19.6027C4.96163 23.8188 5.26527 25.9257 6.72746 27.1851C8.18964 28.4444 10.3338 28.4444 14.6233 28.4444H17.3759C21.6654 28.4444 23.8095 28.4444 25.2717 27.1851C26.7339 25.9257 27.0376 23.8188 27.6436 19.6027L27.9908 17.1922C28.4637 13.9106 28.7001 12.2691 28.0269 10.8667C27.3536 9.46416 25.9226 8.61048 23.0592 6.90559L21.3356 5.87892C18.7373 4.32959 17.4356 3.55554 15.9996 3.55554C14.5635 3.55554 13.2631 4.32959 10.6635 5.87892L8.94003 6.90559C6.07787 8.61048 4.64555 9.46416 3.97232 10.8667ZM11.333 23.4667C11.333 23.2191 11.4314 22.9817 11.6064 22.8067C11.7814 22.6317 12.0188 22.5333 12.2663 22.5333H19.7328C19.9804 22.5333 20.2178 22.6317 20.3928 22.8067C20.5678 22.9817 20.6662 23.2191 20.6662 23.4667C20.6662 23.7142 20.5678 23.9516 20.3928 24.1266C20.2178 24.3017 19.9804 24.4 19.7328 24.4H12.2663C12.0188 24.4 11.7814 24.3017 11.6064 24.1266C11.4314 23.9516 11.333 23.7142 11.333 23.4667Z" fill="#BCC8D2"/>
</svg>
