<svg width="24" height="24" viewBox="0 0 24 24" fill="none" xmlns="http://www.w3.org/2000/svg">
<path fill-rule="evenodd" clip-rule="evenodd" d="M10.549 21.5279L10.799 21.1049C11.199 20.4279 11.399 20.0899 11.719 19.9009C12.039 19.7119 12.455 19.6989 13.287 19.6719C14.068 19.6469 14.593 19.5789 15.042 19.3929C15.9861 19.0012 16.7363 18.251 17.128 17.3069C17.422 16.5979 17.422 15.6999 17.422 13.9039V13.1319C17.422 10.6079 17.422 9.34588 16.854 8.41888C16.5359 7.90014 16.0997 7.46395 15.581 7.14588C14.654 6.57788 13.391 6.57788 10.868 6.57788H8.554C6.03 6.57788 4.768 6.57788 3.841 7.14588C3.32215 7.46423 2.88594 7.90078 2.568 8.41988C2 9.34588 2 10.6099 2 13.1319V13.9029C2 15.6999 2 16.5979 2.293 17.3069C2.68495 18.2512 3.43553 19.0014 4.38 19.3929C4.829 19.5789 5.353 19.6469 6.134 19.6729C6.967 19.6989 7.384 19.7119 7.703 19.9009C8.022 20.0899 8.223 20.4279 8.623 21.1049L8.873 21.5279C8.96034 21.6719 9.08334 21.791 9.23013 21.8737C9.37692 21.9564 9.54254 21.9998 9.711 21.9998C9.87946 21.9998 10.0451 21.9564 10.1919 21.8737C10.3387 21.791 10.4617 21.6719 10.549 21.5279ZM13.084 14.2889C13.3397 14.2889 13.5849 14.1873 13.7657 14.0065C13.9464 13.8257 14.048 13.5805 14.048 13.3249C14.048 13.0692 13.9464 12.824 13.7657 12.6432C13.5849 12.4624 13.3397 12.3609 13.084 12.3609C12.8283 12.3609 12.5831 12.4624 12.4023 12.6432C12.2216 12.824 12.12 13.0692 12.12 13.3249C12.12 13.5805 12.2216 13.8257 12.4023 14.0065C12.5831 14.1873 12.8283 14.2889 13.084 14.2889ZM10.674 13.3249C10.6782 13.454 10.6563 13.5827 10.6098 13.7032C10.5632 13.8237 10.4929 13.9337 10.403 14.0265C10.3132 14.1193 10.2055 14.1931 10.0866 14.2435C9.9676 14.294 9.83971 14.3199 9.7105 14.3199C9.58129 14.3199 9.4534 14.294 9.33443 14.2435C9.21546 14.1931 9.10784 14.1193 9.01796 14.0265C8.92808 13.9337 8.85778 13.8237 8.81123 13.7032C8.76468 13.5827 8.74284 13.454 8.747 13.3249C8.747 13.0692 8.84856 12.824 9.02935 12.6432C9.21013 12.4624 9.45533 12.3609 9.711 12.3609C9.96667 12.3609 10.2119 12.4624 10.3927 12.6432C10.5734 12.824 10.675 13.0692 10.675 13.3249M6.338 14.2889C6.59367 14.2889 6.83887 14.1873 7.01965 14.0065C7.20044 13.8257 7.302 13.5805 7.302 13.3249C7.302 13.0692 7.20044 12.824 7.01965 12.6432C6.83887 12.4624 6.59367 12.3609 6.338 12.3609C6.08233 12.3609 5.83713 12.4624 5.65635 12.6432C5.47556 12.824 5.374 13.0692 5.374 13.3249C5.374 13.5805 5.47556 13.8257 5.65635 14.0065C5.83713 14.1873 6.08233 14.2889 6.338 14.2889Z" fill="#D9E2E9"/>
<path d="M15.17 2C16.321 2 17.237 2 17.972 2.07C18.725 2.141 19.362 2.292 19.929 2.64C20.512 2.99729 21.0023 3.48726 21.36 4.07C21.708 4.637 21.858 5.274 21.93 6.027C22 6.763 22 7.678 22 8.83V9.617C22 10.437 22 11.089 21.964 11.617C21.927 12.158 21.85 12.623 21.67 13.057C21.4463 13.5967 21.1159 14.0857 20.6987 14.4947C20.2815 14.9036 19.786 15.2241 19.242 15.437C19.1146 15.4863 19.0033 15.527 18.908 15.559C18.922 15.09 18.922 14.556 18.922 13.954V13.061C18.922 11.86 18.922 10.853 18.844 10.035C18.762 9.178 18.585 8.375 18.132 7.635C17.6903 6.91453 17.0844 6.30871 16.364 5.867C15.626 5.415 14.822 5.237 13.964 5.156C13.147 5.078 12.14 5.078 10.938 5.078H8.48298C7.66698 5.078 6.94098 5.078 6.30298 5.102C6.33298 4.999 6.37298 4.882 6.42098 4.742C6.50098 4.50733 6.60598 4.284 6.73598 4.072C7.0933 3.48817 7.58365 2.99714 8.16698 2.639C8.73498 2.292 9.37198 2.141 10.125 2.069C10.859 2 11.775 2 12.927 2H15.17Z" fill="#D9E2E9"/>
</svg>
