<svg xmlns="http://www.w3.org/2000/svg" width="22" height="12" viewBox="0 0 22 12" fill="none">
  <path fill-rule="evenodd" clip-rule="evenodd" d="M0.606229 0.0807117C0.726977 0.0290147 0.856726 0.00161209 0.988066 6.90142e-05C1.11941 -0.00147406 1.24976 0.0228727 1.37169 0.0717186C1.49362 0.120564 1.60473 0.192953 1.69868 0.284748C1.79263 0.376543 1.86757 0.485947 1.91923 0.606712L1.00023 1.00071L1.92023 0.606712L1.92323 0.614712L1.94423 0.659712L2.03823 0.853712C2.12423 1.02571 2.25723 1.27771 2.43823 1.58271C2.91549 2.38449 3.4752 3.13422 4.10823 3.81971C4.29796 4.02384 4.49475 4.22129 4.69823 4.41171C6.18023 5.80071 8.25123 7.00071 11.0002 7.00071C12.102 7.00575 13.1947 6.80146 14.2202 6.39871C15.4472 5.91571 16.4742 5.18871 17.3162 4.40071C18.4423 3.33218 19.3679 2.0706 20.0492 0.675712L20.0762 0.617712L20.0812 0.606712C20.1882 0.366721 20.3853 0.17847 20.63 0.0826601C20.8746 -0.0131498 21.1472 -0.00881993 21.3887 0.0947136C21.6301 0.198247 21.8212 0.392665 21.9205 0.635933C22.0198 0.879201 22.0193 1.15177 21.9192 1.39471L21.9172 1.39971L21.9132 1.40771L21.9022 1.43371L21.8622 1.52071C21.6401 1.98329 21.3927 2.4333 21.1212 2.86871C20.6214 3.67166 20.0486 4.42685 19.4102 5.12471L20.2072 5.92171C20.3949 6.10922 20.5003 6.36359 20.5004 6.62886C20.5005 6.89413 20.3952 7.14857 20.2077 7.33621C20.0202 7.52385 19.7659 7.62932 19.5006 7.62941C19.2353 7.62951 18.9809 7.52422 18.7932 7.33671L17.9532 6.49671C17.3621 6.97451 16.7269 7.39507 16.0562 7.75271L16.8382 8.95471C16.912 9.06474 16.9632 9.18832 16.9888 9.31829C17.0144 9.44826 17.0139 9.58202 16.9874 9.71181C16.9609 9.8416 16.9089 9.96482 16.8343 10.0743C16.7598 10.1838 16.6642 10.2774 16.5532 10.3497C16.4422 10.422 16.3179 10.4715 16.1876 10.4953C16.0573 10.5191 15.9236 10.5169 15.7942 10.4886C15.6647 10.4603 15.5422 10.4066 15.4338 10.3306C15.3253 10.2545 15.233 10.1577 15.1622 10.0457L14.1762 8.53171C13.4972 8.73971 12.7722 8.88671 12.0002 8.95571V10.5007C12.0002 10.7659 11.8949 11.0203 11.7073 11.2078C11.5198 11.3954 11.2654 11.5007 11.0002 11.5007C10.735 11.5007 10.4807 11.3954 10.2931 11.2078C10.1056 11.0203 10.0002 10.7659 10.0002 10.5007V8.95671C9.22523 8.88671 8.50023 8.73971 7.82323 8.53171L6.83823 10.0457C6.69033 10.2602 6.46457 10.4085 6.20898 10.459C5.9534 10.5096 5.68818 10.4584 5.46977 10.3164C5.25136 10.1743 5.09701 9.95263 5.03958 9.69851C4.98214 9.44439 5.02614 9.17788 5.16223 8.95571L5.94423 7.75271C5.24423 7.38271 4.61223 6.95271 4.04723 6.49571L3.20723 7.33571C3.01863 7.51787 2.76602 7.61866 2.50383 7.61639C2.24163 7.61411 1.99082 7.50894 1.80541 7.32353C1.62 7.13812 1.51483 6.88731 1.51256 6.62511C1.51028 6.36292 1.61107 6.11031 1.79323 5.92171L2.59023 5.12471C1.88277 4.35089 1.25619 3.50685 0.720229 2.60571C0.506782 2.24573 0.309584 1.87636 0.129229 1.49871L0.0962292 1.42671L0.0862292 1.40571L0.0842292 1.39871L0.0832291 1.39671C0.0802291 1.39671 0.0802292 1.39471 1.00023 1.00071L0.0812292 1.39571C0.0293475 1.27497 0.00177323 1.14519 8.27469e-05 1.01378C-0.00160774 0.88238 0.0226187 0.751931 0.0713771 0.629896C0.120135 0.50786 0.19247 0.396632 0.284243 0.302571C0.376017 0.208509 0.485431 0.132459 0.606229 0.0807117Z" fill="#D9E2E9"/>
</svg>
